<?xml version="1.0" encoding="UTF-8"?>
<svg width="528px" height="528px" viewBox="0 0 528 528" version="1.1" xmlns="http://www.w3.org/2000/svg" xmlns:xlink="http://www.w3.org/1999/xlink">
    <!-- Generator: Sketch 53.2 (72643) - https://sketchapp.com -->
    <title>Group</title>
    <desc>Created with Sketch.</desc>
    <defs>
        <circle id="path-1" cx="264" cy="264" r="263.382671"></circle>
    </defs>
    <g id="Page-1" stroke="none" stroke-width="1" fill="none" fill-rule="evenodd">
        <g id="Logo" transform="translate(-34.000000, -35.000000)">
            <g id="Group" transform="translate(34.000000, 35.000000)">
                <circle id="Oval" fill="#FFFFFF" cx="264" cy="264" r="251"></circle>
                <mask id="mask-2" fill="white">
                    <use xlink:href="#path-1"></use>
                </mask>
                <circle stroke="#111111" stroke-width="25" cx="264" cy="264" r="250.882671"></circle>
                <g id="Unicorn" mask="url(#mask-2)" fill="#111111">
                    <g transform="translate(67.256318, 75.718412)">
                        <path d="M254.938131,158.091592 C254.938131,152.007243 250.003356,147.065212 243.901086,147.065212 L243.901086,147.065212 C237.798816,147.065212 232.864041,151.995218 232.864041,158.091592 L232.864041,158.091592 C232.864041,164.187965 237.798816,169.117971 243.901086,169.117971 L243.901086,169.117971 C250.003356,169.105947 254.938131,164.175941 254.938131,158.091592 L254.938131,158.091592 Z" id="Shape" fill-rule="nonzero"></path>
                        <path d="M31.2724961,322.428999 C13.4952714,233.664841 27.2524436,173.098049 67.7537037,114.046196 C129.967972,23.3100363 237.317375,3.74632944 241.85496,2.95271871 C246.861951,2.13505917 251.820798,4.43172052 254.348365,8.79657952 C256.863897,13.1734629 256.382455,18.6445672 253.144762,22.5164256 L218.095826,64.2892085 L231.0466,71.9728032 L301.734238,3.63810979 C305.657985,-0.161602179 311.663967,-0.846993263 316.345985,2.00279071 C321.028003,4.82852588 323.194489,10.4679718 321.641841,15.698588 L290.733301,119.817911 L373.22829,192.517463 C388.381659,207.620116 404.341442,229.46846 397.360541,250.667485 C393.918235,261.116693 386.877154,269.750216 377.549227,274.992857 C370.857191,278.756495 363.587425,280.524083 356.293588,280.055131 C354.560398,280.355741 352.742957,280.283595 350.925516,279.766546 L273.690275,257.74986 L280.298058,234.626929 L351.009768,254.779832 C352.056903,254.839954 353.104038,255.032344 354.139137,255.369028 C357.89438,256.607542 361.998669,256.114541 365.72984,254.01027 C369.810056,251.725633 372.927389,247.853775 374.480038,243.128184 C376.790956,236.081882 369.834128,223.0835 356.738921,210.012972 L269.032329,132.744146 C265.517806,129.641849 264.121626,124.796014 265.457626,120.310911 L285.521698,52.7337553 L241.229086,95.5526614 C237.425699,99.2201049 231.094744,99.9415692 226.533087,97.2481025 L193.614529,77.7204688 C190.581448,75.9168081 188.487178,72.8746336 187.897412,69.3995806 C187.307646,65.9245275 188.270529,62.3653037 190.533304,59.6598125 L209.249339,37.3545413 C174.405016,50.232679 122.337126,76.806614 87.4566942,127.802116 C50.8912177,181.274644 38.4339374,235.612795 54.8631261,317.667334 L31.2724961,322.428999 Z" id="Shape" fill-rule="nonzero"></path>
                        <path d="M256.683356,244.787551 C261.245014,239.953741 261.028365,232.342292 256.189879,227.785043 C251.351392,223.227793 243.744618,223.444233 239.170924,228.278043 C228.819934,239.232276 214.822024,245.268528 199.764943,245.268528 C169.903539,245.268528 145.602783,220.991254 145.602783,191.158705 C145.602783,176.10415 151.644873,162.107743 162.633773,151.778779 C167.47226,147.22153 167.700944,139.610081 163.139287,134.77627 C158.577629,129.930435 150.946782,129.72602 146.120332,134.271245 C130.485522,148.977093 121.518675,169.719191 121.518675,191.158705 C121.518675,229.288093 149.008981,261.068596 185.213376,267.910482 C184.154205,280.740522 186.152187,301.085816 200.0177,328.802069 C220.454889,369.636948 220.81597,411.205316 220.81597,411.62617 L244.888041,411.614146 C244.888041,409.702266 244.623248,364.15382 221.562204,318.052251 C209.104907,293.173757 208.479033,276.856639 209.405808,268.655995 C227.339501,266.395407 244.189951,258.014397 256.683356,244.787551 Z" id="Shape" fill-rule="nonzero"></path>
                        <path d="M35.0300936,189.314559 C35.0300936,189.314559 24.4194213,214.403345 24.4194213,235.302403 C24.4194213,256.201461 23.5269348,286.008856 26.6258461,303.747024 C29.7247574,321.485193 34.6416968,325.87013 25.3656222,343.908915 C16.0895476,361.947701 0.301627369,376.381374 0.301627369,376.381374 C0.301627369,376.381374 48.9235461,489.355285 123.475089,507.725632 C198.026632,526.095978 162.998604,509.560187 196.214801,507.725632 C229.430999,505.891076 245.590789,450.82962 245.590789,450.82962 L244.491708,408.246446 L220.328463,407.515103 L220.192111,451.486589 C220.192111,451.486589 164.163795,457.816632 150.656673,458.86613 C137.149552,459.915628 70.3742103,458.86613 70.3742103,458.86613 L34.6416968,396.780474 L25.3656222,387.917588 C25.3656222,387.917588 37.1704084,375.422778 44.7524114,365.357514 C52.3344145,355.29225 61.5650384,337.521026 57.524058,325.294788 C53.4830776,313.06855 49.8098347,288.260732 49.8098347,288.260732 L41.0337178,221.105257 L35.0300936,189.314559 Z" id="Path-3" fill-rule="evenodd"></path>
                    </g>
                </g>
            </g>
        </g>
    </g>
</svg>